<?xml version="1.0" standalone="no"?>
<!DOCTYPE svg PUBLIC "-//W3C//DTD SVG 20010904//EN"
 "http://www.w3.org/TR/2001/REC-SVG-20010904/DTD/svg10.dtd">
<svg version="1.0" xmlns="http://www.w3.org/2000/svg"
 width="512.000000pt" height="512.000000pt" viewBox="0 0 512.000000 512.000000"
 preserveAspectRatio="xMidYMid meet">

<g transform="translate(0.000000,512.000000) scale(0.100000,-0.100000)"
fill="#000000" stroke="none">
<path d="M663 4195 c-126 -27 -223 -105 -262 -209 -43 -115 -64 -274 -81 -596
-24 -474 -51 -579 -162 -634 -28 -14 -58 -26 -65 -26 -29 0 -71 -30 -83 -60
-18 -44 -8 -125 20 -155 12 -13 46 -35 75 -49 175 -83 195 -159 225 -866 16
-383 33 -457 122 -555 72 -79 172 -127 278 -133 131 -8 210 36 210 116 0 48
-48 90 -136 120 -89 31 -130 62 -137 104 -10 57 -26 265 -37 488 -22 450 -61
636 -155 749 -15 17 -56 47 -91 67 -35 20 -64 37 -64 39 0 2 29 24 64 49 173
123 214 241 236 676 22 458 36 560 80 607 24 27 79 43 143 43 38 0 53 5 74 26
23 24 25 31 20 86 -6 67 -29 109 -68 119 -40 11 -140 8 -206 -6z"/>
<path d="M4315 4205 c-5 -2 -22 -6 -38 -9 -48 -11 -67 -39 -67 -102 0 -74 29
-105 115 -122 82 -16 122 -43 146 -97 34 -76 39 -131 49 -485 15 -562 44 -656
233 -750 45 -23 83 -43 85 -45 2 -2 -26 -20 -61 -40 -71 -39 -125 -92 -156
-153 -47 -92 -84 -316 -96 -582 -9 -218 -25 -450 -36 -525 -12 -89 -29 -106
-140 -146 -106 -38 -134 -64 -134 -124 0 -83 70 -122 200 -112 90 7 189 38
240 76 98 72 118 171 156 781 18 301 49 483 98 579 24 46 74 93 129 120 52 27
82 72 82 127 0 63 -32 103 -120 146 -89 44 -114 72 -139 154 -29 91 -39 181
-56 505 -32 602 -58 691 -220 765 -70 32 -224 54 -270 39z"/>
<path d="M1835 4121 c-247 -7 -243 -6 -360 -94 -129 -97 -172 -183 -195 -392
-15 -126 -14 -1681 0 -1970 19 -368 65 -497 208 -573 118 -63 126 -64 902 -72
388 -4 782 -4 875 1 405 20 505 101 556 454 16 112 24 1595 10 1926 -11 279
-29 405 -67 489 -65 143 -156 197 -370 219 -114 12 -1232 20 -1559 12z m1654
-213 c69 -20 109 -61 128 -129 38 -138 38 -2257 0 -2427 -18 -80 -44 -107
-116 -124 -83 -19 -1781 -19 -1864 0 -69 16 -120 59 -136 117 -25 85 -33 468
-28 1400 3 648 9 959 16 1000 23 118 79 161 228 175 49 4 455 7 903 6 707 -2
822 -4 869 -18z"/>
<path d="M2035 3540 c-121 -4 -232 -12 -247 -18 -50 -21 -47 -72 5 -93 42 -17
1366 -26 1495 -10 92 12 112 21 112 57 0 49 -30 56 -288 65 -272 9 -756 9
-1077 -1z"/>
<path d="M1850 3010 c-69 -10 -88 -17 -95 -40 -8 -24 3 -48 28 -62 45 -24 846
-35 1334 -19 252 8 283 15 283 65 0 35 -19 45 -101 56 -86 11 -1367 11 -1449
0z"/>
<path d="M1830 2380 c-71 -11 -97 -43 -67 -84 24 -33 134 -37 864 -34 783 3
768 2 768 63 0 61 17 60 -785 61 -399 1 -750 -2 -780 -6z"/>
<path d="M1870 1791 c-36 -4 -75 -11 -87 -15 -27 -9 -40 -50 -23 -71 31 -38
74 -40 810 -40 760 0 812 3 825 46 11 33 -5 58 -43 70 -42 14 -1370 22 -1482
10z"/>
</g>
</svg>
